<svg width="27" height="25" viewBox="0 0 27 25" fill="none" xmlns="http://www.w3.org/2000/svg">
<path d="M13.503 6.04759C9.67209 6.04759 6.58209 8.88929 6.58209 12.4124C6.58209 15.9354 9.67209 18.7771 13.503 18.7771C17.3339 18.7771 20.4239 15.9354 20.4239 12.4124C20.4239 8.88929 17.3339 6.04759 13.503 6.04759ZM13.503 16.5503C11.0274 16.5503 9.00349 14.6946 9.00349 12.4124C9.00349 10.1301 11.0214 8.27442 13.503 8.27442C15.9847 8.27442 18.0025 10.1301 18.0025 12.4124C18.0025 14.6946 15.9786 16.5503 13.503 16.5503ZM22.3213 5.78723C22.3213 6.61265 21.5985 7.27176 20.707 7.27176C19.8095 7.27176 19.0928 6.60708 19.0928 5.78723C19.0928 4.96739 19.8156 4.30271 20.707 4.30271C21.5985 4.30271 22.3213 4.96739 22.3213 5.78723ZM26.9051 7.29393C26.8027 5.30529 26.3088 3.5438 24.7247 2.09248C23.1465 0.641162 21.2311 0.186946 19.0687 0.0872357C16.84 -0.0290786 10.16 -0.0290786 7.93129 0.0872357C5.77498 0.181383 3.85948 0.635599 2.27528 2.08692C0.691175 3.53823 0.203275 5.29981 0.0948752 7.28845C-0.0316251 9.33794 -0.0316251 15.4811 0.0948752 17.5307C0.197275 19.5193 0.691175 21.2809 2.27528 22.7322C3.85948 24.1835 5.76888 24.6378 7.93129 24.7375C10.16 24.8538 16.84 24.8538 19.0687 24.7375C21.2311 24.6433 23.1465 24.189 24.7247 22.7322C26.3028 21.2809 26.7967 19.5193 26.9051 17.5307C27.0316 15.4811 27.0316 9.34351 26.9051 7.29393ZM24.0259 19.7299C23.5561 20.8156 22.6466 21.652 21.46 22.0896C19.683 22.7377 15.4666 22.5882 13.503 22.5882C11.5394 22.5882 7.31699 22.7322 5.54609 22.0896C4.36548 21.6576 3.45588 20.8211 2.98008 19.7299C2.27528 18.0957 2.43798 14.2182 2.43798 12.4124C2.43798 10.6065 2.28138 6.7234 2.98008 5.09483C3.44988 4.00906 4.35948 3.17269 5.54609 2.73508C7.32299 2.08692 11.5394 2.23653 13.503 2.23653C15.4666 2.23653 19.6891 2.09248 21.46 2.73508C22.6405 3.16713 23.5501 4.00358 24.0259 5.09483C24.7307 6.72896 24.568 10.6065 24.568 12.4124C24.568 14.2182 24.7307 18.1013 24.0259 19.7299Z" fill="black"/>
</svg>
