<svg width="28" height="25" viewBox="0 0 28 25" fill="none" xmlns="http://www.w3.org/2000/svg">
<path d="M25.1219 6.26595C25.1397 6.52811 25.1397 6.79037 25.1397 7.05253C25.1397 15.0489 19.3656 24.2627 8.8122 24.2627C5.5609 24.2627 2.5406 23.2701 0 21.5473C0.4619 21.6034 0.906099 21.6222 1.3858 21.6222C4.0685 21.6222 6.5381 20.6672 8.5102 19.0378C5.9873 18.9817 3.8731 17.2401 3.1447 14.843C3.5 14.8991 3.8553 14.9365 4.2285 14.9365C4.7437 14.9365 5.2589 14.8617 5.7386 14.7306C3.1092 14.1688 1.137 11.7342 1.137 8.79415V8.71926C1.9009 9.1687 2.7893 9.44961 3.7309 9.48701C2.1852 8.40077 1.1726 6.54686 1.1726 4.44943C1.1726 3.32579 1.4568 2.29578 1.9543 1.3969C4.7792 5.06741 9.0254 7.4644 13.7868 7.72665C13.698 7.27721 13.6446 6.80911 13.6446 6.34092C13.6446 3.00739 16.203 0.291992 19.3832 0.291992C21.0355 0.291992 22.5279 1.02235 23.5761 2.20223C24.8731 1.94006 26.1167 1.43438 27.2183 0.741519C26.7918 2.14608 25.8858 3.32587 24.6954 4.07489C25.8503 3.94384 26.9696 3.6067 28 3.1386C27.2184 4.33705 26.2412 5.40447 25.1219 6.26595Z" fill="#010101"/>
</svg>
